<mxfile host="Electron" agent="Mozilla/5.0 (Macintosh; Intel Mac OS X 10_15_7) AppleWebKit/537.36 (KHTML, like Gecko) draw.io/26.0.9 Chrome/128.0.6613.186 Electron/32.2.5 Safari/537.36" version="26.0.9">
  <diagram name="Page-1" id="gGleUXAt1yLRhIJoPK8x">
    <mxGraphModel dx="954" dy="674" grid="1" gridSize="10" guides="1" tooltips="1" connect="1" arrows="1" fold="1" page="1" pageScale="1" pageWidth="850" pageHeight="1100" math="0" shadow="0">
      <root>
        <mxCell id="0" />
        <mxCell id="1" parent="0" />
        <mxCell id="oQbVbkL-_QKkp-6BVC7q-6" value="VPC" style="shape=mxgraph.ibm.box;prType=vpc;fontStyle=0;verticalAlign=top;align=left;spacingLeft=32;spacingTop=4;fillColor=none;rounded=0;whiteSpace=wrap;html=1;strokeColor=#4376BB;strokeWidth=2;dashed=0;container=1;spacing=-4;collapsible=0;expand=0;recursiveResize=0;" parent="1" vertex="1">
          <mxGeometry x="310" y="160" width="310" height="330" as="geometry" />
        </mxCell>
        <mxCell id="oQbVbkL-_QKkp-6BVC7q-13" style="edgeStyle=orthogonalEdgeStyle;rounded=0;orthogonalLoop=1;jettySize=auto;html=1;spacing=2;" parent="oQbVbkL-_QKkp-6BVC7q-6" source="oQbVbkL-_QKkp-6BVC7q-10" target="oQbVbkL-_QKkp-6BVC7q-11" edge="1">
          <mxGeometry relative="1" as="geometry" />
        </mxCell>
        <mxCell id="oQbVbkL-_QKkp-6BVC7q-15" value="&lt;h3&gt;9000&lt;/h3&gt;" style="edgeLabel;html=1;align=center;verticalAlign=middle;resizable=0;points=[];" parent="oQbVbkL-_QKkp-6BVC7q-13" vertex="1" connectable="0">
          <mxGeometry x="0.5556" y="1" relative="1" as="geometry">
            <mxPoint as="offset" />
          </mxGeometry>
        </mxCell>
        <mxCell id="oQbVbkL-_QKkp-6BVC7q-10" value="&lt;h3&gt;Control Plane&lt;/h3&gt;" style="image;aspect=fixed;perimeter=ellipsePerimeter;html=1;align=center;shadow=0;dashed=0;spacingTop=3;image=img/lib/active_directory/web_server.svg;" parent="oQbVbkL-_QKkp-6BVC7q-6" vertex="1">
          <mxGeometry x="230" y="23.5" width="40" height="50" as="geometry" />
        </mxCell>
        <mxCell id="oQbVbkL-_QKkp-6BVC7q-11" value="&lt;h3&gt;&lt;font color=&quot;#ffffff&quot;&gt;Dataplane&lt;/font&gt;&lt;/h3&gt;" style="sketch=0;points=[[0,0,0],[0.25,0,0],[0.5,0,0],[0.75,0,0],[1,0,0],[0,1,0],[0.25,1,0],[0.5,1,0],[0.75,1,0],[1,1,0],[0,0.25,0],[0,0.5,0],[0,0.75,0],[1,0.25,0],[1,0.5,0],[1,0.75,0]];outlineConnect=0;fontColor=#232F3E;fillColor=#8C4FFF;strokeColor=#ffffff;dashed=0;verticalLabelPosition=bottom;verticalAlign=top;align=center;html=1;fontSize=12;fontStyle=0;aspect=fixed;shape=mxgraph.aws4.resourceIcon;resIcon=mxgraph.aws4.api_gateway;" parent="oQbVbkL-_QKkp-6BVC7q-6" vertex="1">
          <mxGeometry x="211" y="202" width="78" height="78" as="geometry" />
        </mxCell>
        <mxCell id="oQbVbkL-_QKkp-6BVC7q-3" style="edgeStyle=orthogonalEdgeStyle;rounded=0;orthogonalLoop=1;jettySize=auto;html=1;" parent="1" source="oQbVbkL-_QKkp-6BVC7q-1" target="oQbVbkL-_QKkp-6BVC7q-2" edge="1">
          <mxGeometry relative="1" as="geometry" />
        </mxCell>
        <mxCell id="oQbVbkL-_QKkp-6BVC7q-19" value="&lt;h3&gt;443&lt;/h3&gt;" style="edgeLabel;html=1;align=center;verticalAlign=middle;resizable=0;points=[];" parent="oQbVbkL-_QKkp-6BVC7q-3" vertex="1" connectable="0">
          <mxGeometry x="-0.1273" y="4" relative="1" as="geometry">
            <mxPoint as="offset" />
          </mxGeometry>
        </mxCell>
        <mxCell id="oQbVbkL-_QKkp-6BVC7q-1" value="&lt;h3&gt;HTTPS / 443&lt;/h3&gt;" style="image;html=1;image=img/lib/clip_art/networking/Firewall_02_128x128.png" parent="1" vertex="1">
          <mxGeometry x="160" y="180" width="80" height="80" as="geometry" />
        </mxCell>
        <mxCell id="oQbVbkL-_QKkp-6BVC7q-12" style="edgeStyle=orthogonalEdgeStyle;rounded=0;orthogonalLoop=1;jettySize=auto;html=1;entryX=0;entryY=0.75;entryDx=0;entryDy=0;" parent="1" source="oQbVbkL-_QKkp-6BVC7q-2" target="oQbVbkL-_QKkp-6BVC7q-10" edge="1">
          <mxGeometry relative="1" as="geometry" />
        </mxCell>
        <mxCell id="oQbVbkL-_QKkp-6BVC7q-14" value="&lt;h3&gt;8050&lt;/h3&gt;" style="edgeLabel;html=1;align=center;verticalAlign=middle;resizable=0;points=[];" parent="oQbVbkL-_QKkp-6BVC7q-12" vertex="1" connectable="0">
          <mxGeometry x="-0.1106" relative="1" as="geometry">
            <mxPoint as="offset" />
          </mxGeometry>
        </mxCell>
        <mxCell id="oQbVbkL-_QKkp-6BVC7q-2" value="&lt;h3&gt;Reverse Proxy&lt;/h3&gt;" style="sketch=0;pointerEvents=1;shadow=0;dashed=0;html=1;strokeColor=none;fillColor=#505050;labelPosition=center;verticalLabelPosition=bottom;verticalAlign=top;outlineConnect=0;align=center;shape=mxgraph.office.servers.reverse_proxy;" parent="1" vertex="1">
          <mxGeometry x="350" y="193.5" width="41" height="53" as="geometry" />
        </mxCell>
        <mxCell id="oQbVbkL-_QKkp-6BVC7q-7" style="edgeStyle=orthogonalEdgeStyle;rounded=0;orthogonalLoop=1;jettySize=auto;html=1;entryX=0;entryY=0.75;entryDx=0;entryDy=0;" parent="1" source="oQbVbkL-_QKkp-6BVC7q-4" target="oQbVbkL-_QKkp-6BVC7q-1" edge="1">
          <mxGeometry relative="1" as="geometry" />
        </mxCell>
        <mxCell id="oQbVbkL-_QKkp-6BVC7q-4" value="&lt;h3&gt;Internet&lt;/h3&gt;" style="image;aspect=fixed;perimeter=ellipsePerimeter;html=1;align=center;shadow=0;dashed=0;spacingTop=3;image=img/lib/active_directory/internet_cloud.svg;" parent="1" vertex="1">
          <mxGeometry x="30" y="225" width="50" height="31.5" as="geometry" />
        </mxCell>
        <mxCell id="oQbVbkL-_QKkp-6BVC7q-18" value="&lt;h2&gt;Expose ControlPlane&lt;/h2&gt;" style="text;html=1;align=center;verticalAlign=middle;whiteSpace=wrap;rounded=0;" parent="1" vertex="1">
          <mxGeometry x="190" y="110" width="300" height="30" as="geometry" />
        </mxCell>
      </root>
    </mxGraphModel>
  </diagram>
</mxfile>
